<svg width="61.9" height="37.4" viewBox="0 0 619 374" fill="none" xmlns="http://www.w3.org/2000/svg">
<mask id="mask0_800_29" style="mask-type:alpha" maskUnits="userSpaceOnUse" x="0" y="0" width="619" height="374">
<rect width="619" height="374" fill="#D9D9D9"/>
</mask>
<g mask="url(#mask0_800_29)">
<path d="M311.639 374V-0.545466H474.039C502.569 -0.545466 526.527 3.29509 545.912 10.9762C565.42 18.6573 580.112 29.5084 589.987 43.5295C599.985 57.5505 604.984 74.071 604.984 93.0909C604.984 106.868 601.936 119.426 595.84 130.765C589.865 142.104 581.453 151.614 570.602 159.295C559.751 166.854 547.071 172.097 532.562 175.023V178.68C548.656 179.29 563.286 183.374 576.454 190.934C589.622 198.371 600.107 208.673 607.91 221.841C615.713 234.887 619.615 250.249 619.615 267.928C619.615 288.411 614.25 306.638 603.521 322.61C592.914 338.582 577.795 351.14 558.166 360.284C538.536 369.428 515.127 374 487.938 374H311.639ZM413.322 292.8H460.872C477.941 292.8 490.743 289.63 499.277 283.29C507.812 276.828 512.079 267.318 512.079 254.76C512.079 245.982 510.067 238.544 506.044 232.448C502.02 226.352 496.29 221.719 488.853 218.549C481.537 215.379 472.698 213.794 462.335 213.794H413.322V292.8ZM413.322 150.882H455.019C463.92 150.882 471.784 149.48 478.611 146.676C485.439 143.872 490.743 139.848 494.522 134.605C498.424 129.241 500.374 122.718 500.374 115.037C500.374 103.454 496.229 94.6149 487.938 88.5188C479.648 82.3008 469.162 79.1918 456.482 79.1918H413.322V150.882Z" fill="#E50000"/>
<path d="M101 100C101 44.7715 145.772 0 201 0H315V374H201C145.772 374 101 329.228 101 274V100Z" fill="#E50000"/>
<path d="M238.973 124.392C237.434 118.118 235.007 112.614 231.693 107.879C228.379 103.026 224.236 98.9422 219.264 95.6278C214.411 92.1951 208.729 89.6501 202.219 87.9929C195.827 86.2173 188.783 85.3295 181.089 85.3295C164.517 85.3295 150.372 89.295 138.653 97.2258C127.053 105.157 118.175 116.58 112.02 131.494C105.983 146.409 102.964 164.402 102.964 185.472C102.964 206.778 105.864 225.008 111.665 240.159C117.465 255.311 126.106 266.911 137.588 274.96C149.07 283.009 163.334 287.034 180.379 287.034C195.412 287.034 207.9 284.844 217.844 280.464C227.905 276.085 235.422 269.87 240.393 261.821C245.365 253.772 247.851 244.302 247.851 233.412L264.896 235.188H181.8V164.875H343.021V215.301C343.021 248.445 335.978 276.795 321.892 300.351C307.924 323.788 288.63 341.781 264.008 354.328C239.506 366.757 211.392 372.972 179.669 372.972C144.276 372.972 113.203 365.455 86.4515 350.422C59.6996 335.389 38.8071 313.964 23.774 286.146C8.8592 258.329 1.40181 225.244 1.40181 186.892C1.40181 156.826 5.9591 130.192 15.0737 106.991C24.3066 83.7907 37.0907 64.2003 53.426 48.2202C69.7612 32.1217 88.6414 19.9886 110.067 11.821C131.492 3.53502 154.456 -0.607968 178.959 -0.607968C200.502 -0.607968 220.507 2.46969 238.973 8.625C257.557 14.6619 273.952 23.303 288.156 34.5483C302.479 45.6752 314.02 58.8736 322.78 74.1435C331.539 89.4133 336.866 106.163 338.76 124.392H238.973Z" fill="white"/>
</g>
</svg>
